<svg width="16" height="16" viewBox="0 0 16 16" fill="none" xmlns="http://www.w3.org/2000/svg">
<path d="M5.98042 5.95799C6.02842 6.11829 5.98908 6.29894 5.88175 6.40879L5.09312 7.19321L5.41911 8.40563C5.46377 8.57 5.41911 8.75065 5.30645 8.85562C5.19378 8.96059 5.03979 8.96791 4.92113 8.87433L4.00317 8.14443L3.10054 8.88166C3.04454 8.92722 2.97988 8.95001 2.91521 8.95001C2.84455 8.95001 2.77455 8.92316 2.71522 8.86864C2.60189 8.7653 2.55456 8.58547 2.59723 8.4211L2.91055 7.19402L2.11791 6.40716C2.01125 6.2965 1.97258 6.11667 2.02058 5.95718C2.06858 5.79688 2.19391 5.69028 2.33324 5.69028H3.33319L3.68718 4.47785C3.73584 4.31836 3.86051 4.2134 3.99983 4.2134C4.13916 4.2134 4.26382 4.31918 4.31249 4.47785L4.66647 5.69028H5.66643C5.80643 5.69028 5.93175 5.79688 5.97975 5.95799H5.98042ZM9.66693 5.69028H8.66697L8.31299 4.47785C8.26432 4.31836 8.13966 4.2134 8.00033 4.2134C7.86101 4.2134 7.73634 4.31918 7.68768 4.47785L7.33369 5.69028H6.33374C6.19374 5.69028 6.06908 5.79688 6.02108 5.95718C5.97242 6.11748 6.01175 6.29731 6.11841 6.40716L6.91105 7.19402L6.59773 8.4211C6.55573 8.58547 6.60239 8.7653 6.71572 8.86864C6.77505 8.92234 6.84505 8.95001 6.91571 8.95001C6.98038 8.95001 7.04504 8.92722 7.10104 8.88166L8.00367 8.14443L8.92163 8.87433C9.04029 8.96791 9.19428 8.96059 9.30695 8.85562C9.41894 8.74984 9.46427 8.56919 9.41961 8.40563L9.09362 7.19321L9.88226 6.40879C9.98958 6.29894 10.0289 6.11829 9.98092 5.95799C9.93292 5.79769 9.80759 5.69028 9.6676 5.69028H9.66693ZM13.6668 5.69028H12.6668L12.3128 4.47785C12.2642 4.31836 12.1395 4.2134 12.0002 4.2134C11.8608 4.2134 11.7362 4.31918 11.6875 4.47785L11.3335 5.69028H10.3336C10.1936 5.69028 10.0689 5.79688 10.0209 5.95718C9.97225 6.11748 10.0116 6.29731 10.1182 6.40716L10.9109 7.19402L10.5976 8.4211C10.5556 8.58547 10.6022 8.7653 10.7156 8.86864C10.7749 8.92234 10.8449 8.95001 10.9155 8.95001C10.9802 8.95001 11.0449 8.92722 11.1009 8.88166L12.0035 8.14443L12.9215 8.87433C13.0401 8.96791 13.1941 8.96059 13.3068 8.85562C13.4188 8.74984 13.4641 8.56919 13.4194 8.40563L13.0935 7.19321L13.8821 6.40879C13.9894 6.29894 14.0287 6.11829 13.9808 5.95799C13.9328 5.79769 13.8068 5.69028 13.6668 5.69028ZM16 3.25403V9.76372C16 11.5588 14.8041 13.0186 13.3334 13.0186H11.4322L8.86696 15.6062C8.62631 15.8682 8.31765 16 8.00567 16C7.68835 16 7.36903 15.8633 7.11437 15.5874L4.61514 13.0186H2.66656C1.19595 13.0186 0 11.5588 0 9.76372V3.25484C0.000666639 1.4598 1.19662 0 2.66722 0H13.3334C14.8041 0 16 1.45898 16 3.25403ZM14.6667 3.25403C14.6667 2.35651 14.0687 1.62661 13.3334 1.62661H2.66722C1.93192 1.62661 1.33394 2.35651 1.33394 3.25403V9.76372C1.33394 10.6612 1.93192 11.3911 2.66722 11.3911H4.85913C5.01579 11.3911 5.16845 11.4587 5.28911 11.5824L7.98767 14.3571L10.7682 11.5775C10.8875 11.4571 11.0375 11.3911 11.1929 11.3911H13.3341C14.0694 11.3911 14.6674 10.6612 14.6674 9.76372V3.25484L14.6667 3.25403Z" fill="#9DA2A8"/>
</svg>
