<svg width="16" height="17" viewBox="0 0 16 17" fill="none" xmlns="http://www.w3.org/2000/svg">
<g clip-path="url(#clip0_117_128)">
<path d="M4.66667 0.5H2.66667C1.95942 0.5 1.28115 0.780952 0.781049 1.28105C0.280952 1.78115 0 2.45942 0 3.16667L0 5.16667C0 5.87391 0.280952 6.55219 0.781049 7.05229C1.28115 7.55238 1.95942 7.83333 2.66667 7.83333H4.66667C5.37391 7.83333 6.05219 7.55238 6.55229 7.05229C7.05238 6.55219 7.33333 5.87391 7.33333 5.16667V3.16667C7.33333 2.45942 7.05238 1.78115 6.55229 1.28105C6.05219 0.780952 5.37391 0.5 4.66667 0.5ZM6 5.16667C6 5.52029 5.85952 5.85943 5.60948 6.10948C5.35943 6.35952 5.02029 6.5 4.66667 6.5H2.66667C2.31304 6.5 1.97391 6.35952 1.72386 6.10948C1.47381 5.85943 1.33333 5.52029 1.33333 5.16667V3.16667C1.33333 2.81304 1.47381 2.47391 1.72386 2.22386C1.97391 1.97381 2.31304 1.83333 2.66667 1.83333H4.66667C5.02029 1.83333 5.35943 1.97381 5.60948 2.22386C5.85952 2.47391 6 2.81304 6 3.16667V5.16667Z" fill="#9DA2A8"/>
<path d="M13.3334 0.5H11.3334C10.6262 0.5 9.94789 0.780952 9.4478 1.28105C8.9477 1.78115 8.66675 2.45942 8.66675 3.16667V5.16667C8.66675 5.87391 8.9477 6.55219 9.4478 7.05229C9.94789 7.55238 10.6262 7.83333 11.3334 7.83333H13.3334C14.0407 7.83333 14.7189 7.55238 15.219 7.05229C15.7191 6.55219 16.0001 5.87391 16.0001 5.16667V3.16667C16.0001 2.45942 15.7191 1.78115 15.219 1.28105C14.7189 0.780952 14.0407 0.5 13.3334 0.5ZM14.6667 5.16667C14.6667 5.52029 14.5263 5.85943 14.2762 6.10948C14.0262 6.35952 13.687 6.5 13.3334 6.5H11.3334C10.9798 6.5 10.6407 6.35952 10.3906 6.10948C10.1406 5.85943 10.0001 5.52029 10.0001 5.16667V3.16667C10.0001 2.81304 10.1406 2.47391 10.3906 2.22386C10.6407 1.97381 10.9798 1.83333 11.3334 1.83333H13.3334C13.687 1.83333 14.0262 1.97381 14.2762 2.22386C14.5263 2.47391 14.6667 2.81304 14.6667 3.16667V5.16667Z" fill="#9DA2A8"/>
<path d="M4.66667 9.16675H2.66667C1.95942 9.16675 1.28115 9.4477 0.781049 9.9478C0.280952 10.4479 0 11.1262 0 11.8334L0 13.8334C0 14.5407 0.280952 15.2189 0.781049 15.719C1.28115 16.2191 1.95942 16.5001 2.66667 16.5001H4.66667C5.37391 16.5001 6.05219 16.2191 6.55229 15.719C7.05238 15.2189 7.33333 14.5407 7.33333 13.8334V11.8334C7.33333 11.1262 7.05238 10.4479 6.55229 9.9478C6.05219 9.4477 5.37391 9.16675 4.66667 9.16675ZM6 13.8334C6 14.187 5.85952 14.5262 5.60948 14.7762C5.35943 15.0263 5.02029 15.1667 4.66667 15.1667H2.66667C2.31304 15.1667 1.97391 15.0263 1.72386 14.7762C1.47381 14.5262 1.33333 14.187 1.33333 13.8334V11.8334C1.33333 11.4798 1.47381 11.1407 1.72386 10.8906C1.97391 10.6406 2.31304 10.5001 2.66667 10.5001H4.66667C5.02029 10.5001 5.35943 10.6406 5.60948 10.8906C5.85952 11.1407 6 11.4798 6 11.8334V13.8334Z" fill="#9DA2A8"/>
<path d="M13.3334 9.16675H11.3334C10.6262 9.16675 9.94789 9.4477 9.4478 9.9478C8.9477 10.4479 8.66675 11.1262 8.66675 11.8334V13.8334C8.66675 14.5407 8.9477 15.2189 9.4478 15.719C9.94789 16.2191 10.6262 16.5001 11.3334 16.5001H13.3334C14.0407 16.5001 14.7189 16.2191 15.219 15.719C15.7191 15.2189 16.0001 14.5407 16.0001 13.8334V11.8334C16.0001 11.1262 15.7191 10.4479 15.219 9.9478C14.7189 9.4477 14.0407 9.16675 13.3334 9.16675ZM14.6667 13.8334C14.6667 14.187 14.5263 14.5262 14.2762 14.7762C14.0262 15.0263 13.687 15.1667 13.3334 15.1667H11.3334C10.9798 15.1667 10.6407 15.0263 10.3906 14.7762C10.1406 14.5262 10.0001 14.187 10.0001 13.8334V11.8334C10.0001 11.4798 10.1406 11.1407 10.3906 10.8906C10.6407 10.6406 10.9798 10.5001 11.3334 10.5001H13.3334C13.687 10.5001 14.0262 10.6406 14.2762 10.8906C14.5263 11.1407 14.6667 11.4798 14.6667 11.8334V13.8334Z" fill="#9DA2A8"/>
</g>
<defs>
<clipPath id="clip0_117_128">
<rect width="16" height="16" fill="white" transform="translate(0 0.5)"/>
</clipPath>
</defs>
</svg>
