<svg width="16" height="16" viewBox="0 0 16 16" fill="none" xmlns="http://www.w3.org/2000/svg">
<path d="M10.018 16H5.98201V13.658C5.28059 13.412 4.63093 13.04 4.06558 12.5607L2.01799 13.7333L0 10.2667L2.04692 9.09667C1.91246 8.37163 1.91246 7.62837 2.04692 6.90333L0 5.73333L2.01799 2.26667L4.06558 3.43933C4.63093 2.95995 5.28059 2.58796 5.98201 2.342V0H10.018V2.342C10.7194 2.58796 11.3691 2.95995 11.9344 3.43933L13.982 2.26667L16 5.73333L13.9531 6.90333C14.0875 7.62837 14.0875 8.37163 13.9531 9.09667L16 10.2667L13.982 13.7333L11.9344 12.5613C11.369 13.0405 10.7194 13.4122 10.018 13.658V16ZM7.32733 14.6667H8.67266V12.6487L9.17784 12.5193C10.0066 12.3066 10.7609 11.8734 11.3593 11.2667L11.7245 10.898L13.4889 11.908L14.1616 10.7533L12.3992 9.74467L12.5378 9.24733C12.7656 8.42929 12.7656 7.56538 12.5378 6.74733L12.3992 6.25L14.1616 5.24133L13.4889 4.08667L11.7245 5.09933L11.3593 4.73333C10.7606 4.12756 10.0063 3.69535 9.17784 3.48333L8.67266 3.35133V1.33333H7.32733V3.35133L6.82216 3.48067C5.99343 3.69343 5.23912 4.12659 4.64071 4.73333L4.27546 5.102L2.51106 4.08933L1.83839 5.244L3.60077 6.25267L3.4622 6.75C3.23441 7.56804 3.23441 8.43196 3.4622 9.25L3.60077 9.74733L1.83839 10.756L2.51106 11.9107L4.27546 10.9007L4.64071 11.2693C5.23944 11.8751 5.99373 12.3073 6.82216 12.5193L7.32733 12.6487V14.6667ZM8 10.6667C7.46784 10.6667 6.94763 10.5103 6.50515 10.2173C6.06267 9.92424 5.7178 9.50776 5.51416 9.02049C5.31051 8.53322 5.25722 7.99704 5.36104 7.47976C5.46486 6.96248 5.72112 6.48732 6.09742 6.11438C6.47371 5.74144 6.95314 5.48747 7.47508 5.38457C7.99701 5.28168 8.53802 5.33449 9.02967 5.53632C9.52132 5.73815 9.94155 6.07995 10.2372 6.51848C10.5329 6.95701 10.6907 7.47258 10.6907 8C10.6907 8.70724 10.4072 9.38552 9.90258 9.88562C9.39799 10.3857 8.71361 10.6667 8 10.6667ZM8 6.66667C7.73392 6.66667 7.47381 6.74487 7.25257 6.89137C7.03134 7.03788 6.8589 7.24612 6.75708 7.48976C6.65525 7.73339 6.62861 8.00148 6.68052 8.26012C6.73243 8.51876 6.86056 8.75634 7.04871 8.94281C7.23686 9.12928 7.47657 9.25627 7.73754 9.30771C7.99851 9.35916 8.26901 9.33276 8.51483 9.23184C8.76066 9.13092 8.97077 8.96003 9.1186 8.74076C9.26643 8.52149 9.34533 8.26371 9.34533 8C9.34533 7.64638 9.20359 7.30724 8.95129 7.05719C8.69899 6.80714 8.3568 6.66667 8 6.66667Z" fill="#9DA2A8"/>
</svg>
