<svg width="16" height="16" viewBox="0 0 16 16" fill="none" xmlns="http://www.w3.org/2000/svg">
<g clip-path="url(#clip0_133_164)">
<path d="M9.41333 1.12266C8.99237 0.82524 8.50154 0.666992 8 0.666992C7.49846 0.666992 7.00763 0.82524 6.58667 1.12266L0 5.75767L2.66667 7.63407V14.7862L2.862 14.9993C2.92467 15.067 4.43133 16.667 8 16.667C11.5687 16.667 13.0753 15.067 13.138 14.9993L13.3333 14.7862V7.63407L14.6667 6.69587V14.4851H16V5.75767L9.41333 1.12266ZM12 14.1331C10.7952 14.9202 9.40217 15.296 8 15.2124C6.5979 15.2962 5.20486 14.9206 4 14.1338V8.57227L6.58667 10.3905C7.00739 10.6886 7.49832 10.8473 8 10.8473C8.50168 10.8473 8.99261 10.6886 9.41333 10.3905L12 8.57227V14.1331ZM8.69067 9.1701C8.48513 9.31596 8.2452 9.3936 8 9.3936C7.7548 9.3936 7.51487 9.31596 7.30933 9.1701L2.46 5.75767L7.30933 2.34523C7.51487 2.19938 7.7548 2.12174 8 2.12174C8.2452 2.12174 8.48513 2.19938 8.69067 2.34523L13.54 5.75767L8.69067 9.1701Z" fill="#9DA2A8"/>
</g>
<defs>
<clipPath id="clip0_133_164">
<rect width="16" height="16" fill="white"/>
</clipPath>
</defs>
</svg>
