<svg width="16" height="16" viewBox="0 0 16 16" fill="none" xmlns="http://www.w3.org/2000/svg">
<path d="M12.6667 0H3.33333C1.49333 0 0 1.792 0 4V12C0 14.208 1.49333 16 3.33333 16H12.6667C14.5067 16 16 14.208 16 12V4C16 1.792 14.5067 0 12.6667 0ZM3.33333 1.6H12.6667C13.7667 1.6 14.6667 2.68 14.6667 4H1.33333C1.33333 2.68 2.23333 1.6 3.33333 1.6ZM12.6667 14.4H3.33333C2.23333 14.4 1.33333 13.32 1.33333 12V5.6H14.6667V12C14.6667 13.32 13.7667 14.4 12.6667 14.4ZM6.66667 8C6.66667 8.44 6.36667 8.8 6 8.8H5.33333V12C5.33333 12.44 5.03333 12.8 4.66667 12.8C4.3 12.8 4 12.44 4 12V8.8H3.33333C2.96667 8.8 2.66667 8.44 2.66667 8C2.66667 7.56 2.96667 7.2 3.33333 7.2H6C6.36667 7.2 6.66667 7.56 6.66667 8ZM13.3333 8C13.3333 8.44 13.0333 8.8 12.6667 8.8H8.66667C8.3 8.8 8 8.44 8 8C8 7.56 8.3 7.2 8.66667 7.2H12.6667C13.0333 7.2 13.3333 7.56 13.3333 8ZM13.3333 11.2C13.3333 11.64 13.0333 12 12.6667 12H8.66667C8.3 12 8 11.64 8 11.2C8 10.76 8.3 10.4 8.66667 10.4H12.6667C13.0333 10.4 13.3333 10.76 13.3333 11.2Z" fill="#9DA2A8"/>
</svg>
