<svg width="16" height="16" viewBox="0 0 16 16" fill="none" xmlns="http://www.w3.org/2000/svg">
<g clip-path="url(#clip0_122_221)">
<path d="M15.4801 3.82867L13.4728 1.11667C13.2259 0.771557 12.9004 0.490246 12.5231 0.296051C12.1459 0.101856 11.7278 0.000369147 11.3034 1.17493e-06H4.69678C4.27453 -0.000395157 3.85823 0.0994832 3.48213 0.291417C3.10603 0.48335 2.78088 0.761852 2.53345 1.104L0.490113 3.83533C0.157422 4.30446 -0.0143903 4.86872 0.000391578 5.44365C0.0151734 6.01858 0.215754 6.57326 0.572113 7.02467L6.43345 15.2433C6.62024 15.4799 6.85831 15.6709 7.12971 15.802C7.4011 15.933 7.69872 16.0007 8.00011 16C8.30667 15.9994 8.60901 15.9285 8.88385 15.7926C9.15869 15.6568 9.39872 15.4598 9.58545 15.2167L15.4001 7.08933C15.7724 6.63132 15.9823 6.06273 15.9967 5.47266C16.0112 4.88259 15.8295 4.30439 15.4801 3.82867ZM12.3948 1.90067L14.4068 4.61933C14.4174 4.634 14.4201 4.65133 14.4308 4.66667H11.1694L10.2174 1.33333H11.3034C11.5174 1.334 11.7281 1.38584 11.918 1.48454C12.1078 1.58323 12.2713 1.72591 12.3948 1.90067ZM8.00011 12.7453L6.20011 6H9.80011L8.00011 12.7453ZM6.21745 4.66667L7.16945 1.33333H8.83078L9.78278 4.66667H6.21745ZM3.61145 1.89133C3.73515 1.71893 3.89808 1.57841 4.08679 1.48139C4.2755 1.38437 4.48459 1.33362 4.69678 1.33333H5.78278L4.83078 4.66667H1.54545C1.55478 4.652 1.55745 4.634 1.56811 4.62L3.61145 1.89133ZM1.63211 6.21667C1.58398 6.14868 1.54267 6.0761 1.50878 6H4.82145L6.81745 13.4867L1.63211 6.21667ZM9.18078 13.4933L11.1808 6H14.5048C14.4618 6.09951 14.4075 6.1937 14.3428 6.28067L9.18078 13.4933Z" fill="#9DA2A8"/>
</g>
<defs>
<clipPath id="clip0_122_221">
<rect width="16" height="16" fill="white"/>
</clipPath>
</defs>
</svg>
